<svg width="15" height="16" viewBox="0 0 15 16" fill="none" xmlns="http://www.w3.org/2000/svg">
<path d="M1.28882 8.232C1.23673 8.08232 1.23673 7.91767 1.28882 7.768C1.79613 6.4559 2.65727 5.33402 3.76305 4.5446C4.86884 3.75517 6.16947 3.33374 7.50007 3.33374C8.83067 3.33374 10.1313 3.75517 11.2371 4.5446C12.3429 5.33402 13.204 6.4559 13.7113 7.768C13.7634 7.91767 13.7634 8.08232 13.7113 8.232C13.204 9.54409 12.3429 10.666 11.2371 11.4554C10.1313 12.2448 8.83067 12.6663 7.50007 12.6663C6.16947 12.6663 4.86884 12.2448 3.76305 11.4554C2.65727 10.666 1.79613 9.54409 1.28882 8.232Z" stroke="black" stroke-linecap="round" stroke-linejoin="round"/>
<path d="M7.5 10C8.53553 10 9.375 9.10457 9.375 8C9.375 6.89543 8.53553 6 7.5 6C6.46447 6 5.625 6.89543 5.625 8C5.625 9.10457 6.46447 10 7.5 10Z" stroke="black" stroke-linecap="round" stroke-linejoin="round"/>
</svg>
