<svg width="15" height="16" viewBox="0 0 15 16" fill="none" xmlns="http://www.w3.org/2000/svg">
<path d="M11.25 2H9.375C9.02982 2 8.75 2.29848 8.75 2.66667V13.3333C8.75 13.7015 9.02982 14 9.375 14H11.25C11.5952 14 11.875 13.7015 11.875 13.3333V2.66667C11.875 2.29848 11.5952 2 11.25 2Z" stroke="black" stroke-linecap="round" stroke-linejoin="round"/>
<path d="M5.625 2H3.75C3.40482 2 3.125 2.29848 3.125 2.66667V13.3333C3.125 13.7015 3.40482 14 3.75 14H5.625C5.97018 14 6.25 13.7015 6.25 13.3333V2.66667C6.25 2.29848 5.97018 2 5.625 2Z" stroke="black" stroke-linecap="round" stroke-linejoin="round"/>
</svg>
