<?xml version="1.0" standalone="no"?>
<!DOCTYPE svg PUBLIC "-//W3C//DTD SVG 20010904//EN"
 "http://www.w3.org/TR/2001/REC-SVG-20010904/DTD/svg10.dtd">
<svg version="1.0" xmlns="http://www.w3.org/2000/svg"
 width="640.000000pt" height="640.000000pt" viewBox="0 0 640.000000 640.000000"
 preserveAspectRatio="xMidYMid meet">

<g transform="translate(0.000000,640.000000) scale(0.100000,-0.100000)"
fill="#000000" stroke="none">
<path d="M0 3200 l0 -3200 3200 0 3200 0 0 3200 0 3200 -3200 0 -3200 0 0
-3200z m2435 -21 c94 -363 171 -667 173 -675 3 -12 -20 -14 -144 -12 l-148 3
-17 65 c-9 36 -67 261 -128 500 -62 239 -117 452 -122 473 l-10 38 -81 -3 -81
-3 -34 -130 c-151 -586 -235 -913 -239 -927 -5 -16 -21 -18 -150 -18 -79 0
-144 3 -144 6 0 3 70 279 156 613 86 333 163 634 172 669 l15 62 306 0 306 0
170 -661z m597 124 l3 -538 268 -3 267 -2 0 540 0 540 145 0 145 0 0 -540 0
-540 90 0 90 0 0 -255 0 -255 -140 0 -140 0 0 120 0 120 -510 0 -510 0 0 675
0 675 145 0 145 0 2 -537z m2168 402 l0 -135 -215 0 -215 0 0 -540 0 -541
-147 3 -148 3 -3 538 -2 537 -215 0 -215 0 0 135 0 135 580 0 580 0 0 -135z"/>
</g>
</svg>
